<?xml version="1.0" encoding="iso-8859-1"?>
<!-- Generator: Adobe Illustrator 16.0.0, SVG Export Plug-In . SVG Version: 6.00 Build 0)  -->
<!DOCTYPE svg PUBLIC "-//W3C//DTD SVG 1.1//EN" "http://www.w3.org/Graphics/SVG/1.1/DTD/svg11.dtd">
<svg version="1.1" id="Capa_1" xmlns="http://www.w3.org/2000/svg" xmlns:xlink="http://www.w3.org/1999/xlink" x="0px" y="0px"
	 width="400.354px" height="400.354px" viewBox="0 0 400.354 400.354" style="enable-background:new 0 0 400.354 400.354;"
	 xml:space="preserve">
<g>
	<g>
		<path d="M314.671,23.379l-9.26-20.149c-1.278-2.783-4.568-4-7.353-2.723l-55.668,25.58c-0.916,0.42-1.697,1.082-2.265,1.913
			l-29.18,42.757c-4.76-1.243-9.748-1.916-14.896-1.916c-25.453,0-47.123,16.176-55.306,38.806h-38.938
			c-9.185,0-16.631,7.446-16.631,16.631v58.109c0,9.185,7.446,16.631,16.631,16.631h7.703l13.407,185.901
			c0.626,8.699,7.866,15.435,16.588,15.435h113.092c8.72,0,15.961-6.734,16.588-15.435l13.406-185.901h7.703
			c9.185,0,16.631-7.446,16.631-16.631v-58.109c0-9.185-7.446-16.631-16.631-16.631h-38.939c-2.654-7.343-6.736-14.001-11.9-19.652
			L263.267,53.1l48.68-22.369c1.338-0.614,2.374-1.733,2.887-3.112C315.343,26.24,315.285,24.715,314.671,23.379z M163.166,369.308
			c-6.581,0.482-12.189-4.506-12.653-10.948l-7.099-98.438c-0.228-3.151,0.786-6.205,2.854-8.594
			c2.068-2.391,4.943-3.831,8.096-4.059c0.288-0.021,0.574-0.032,0.857-0.032c6.169,0,11.351,4.823,11.793,10.98l7.098,98.438
			C174.584,363.166,169.672,368.839,163.166,369.308z"/>
	</g>
</g>
<g>
</g>
<g>
</g>
<g>
</g>
<g>
</g>
<g>
</g>
<g>
</g>
<g>
</g>
<g>
</g>
<g>
</g>
<g>
</g>
<g>
</g>
<g>
</g>
<g>
</g>
<g>
</g>
<g>
</g>
</svg>
